<svg width="259" height="257" viewBox="0 0 259 257" fill="none" xmlns="http://www.w3.org/2000/svg">
<g filter="url(#filter0_d_208_125)">
<rect x="72.3337" y="33.1368" width="115" height="113.383" rx="42" fill="black"/>
<rect width="50.3924" height="50.3924" transform="translate(103.829 64.6321)" fill="black"/>
<path d="M148.512 103.316C147.781 105.004 146.917 106.557 145.915 107.985C144.55 109.931 143.432 111.279 142.571 112.027C141.235 113.255 139.804 113.884 138.272 113.92C137.172 113.92 135.846 113.607 134.301 112.972C132.752 112.34 131.328 112.027 130.027 112.027C128.661 112.027 127.197 112.34 125.631 112.972C124.062 113.607 122.799 113.938 121.833 113.97C120.363 114.033 118.899 113.386 117.437 112.027C116.504 111.213 115.337 109.818 113.939 107.841C112.439 105.731 111.206 103.284 110.24 100.493C109.205 97.4798 108.686 94.5614 108.686 91.7361C108.686 88.4997 109.385 85.7083 110.786 83.3692C111.887 81.4903 113.352 80.0082 115.185 78.9201C117.018 77.8321 118.998 77.2776 121.131 77.2422C122.298 77.2422 123.828 77.6031 125.73 78.3126C127.627 79.0245 128.844 79.3854 129.378 79.3854C129.778 79.3854 131.13 78.9633 133.424 78.1218C135.592 77.3414 137.422 77.0183 138.922 77.1456C142.985 77.4735 146.037 79.0751 148.067 81.9607C144.434 84.1624 142.636 87.2462 142.672 91.2022C142.705 94.2836 143.823 96.8478 146.019 98.8838C147.015 99.8287 148.127 100.559 149.364 101.078C149.096 101.856 148.813 102.601 148.512 103.316ZM139.193 66.6479C139.193 69.0631 138.311 71.3181 136.552 73.4054C134.43 75.8867 131.862 77.3206 129.078 77.0943C129.043 76.8046 129.022 76.4996 129.022 76.1791C129.022 73.8606 130.032 71.3792 131.824 69.3504C132.719 68.3232 133.857 67.4691 135.237 66.7877C136.615 66.1165 137.917 65.7453 139.142 65.6818C139.178 66.0046 139.193 66.3275 139.193 66.6479V66.6479Z" fill="white"/>
</g>
<defs>
<filter id="filter0_d_208_125" x="0.858116" y="0.148098" width="257.951" height="256.334" filterUnits="userSpaceOnUse" color-interpolation-filters="sRGB">
<feFlood flood-opacity="0" result="BackgroundImageFix"/>
<feColorMatrix in="SourceAlpha" type="matrix" values="0 0 0 0 0 0 0 0 0 0 0 0 0 0 0 0 0 0 127 0" result="hardAlpha"/>
<feOffset dy="38.4869"/>
<feGaussianBlur stdDeviation="35.7378"/>
<feColorMatrix type="matrix" values="0 0 0 0 0 0 0 0 0 0 0 0 0 0 0 0 0 0 0.07 0"/>
<feBlend mode="normal" in2="BackgroundImageFix" result="effect1_dropShadow_208_125"/>
<feBlend mode="normal" in="SourceGraphic" in2="effect1_dropShadow_208_125" result="shape"/>
</filter>
</defs>
</svg>
