<svg width="259" height="257" viewBox="0 0 259 257" fill="none" xmlns="http://www.w3.org/2000/svg">
<g filter="url(#filter0_d_208_112)">
<path d="M72.3337 90.0753C72.3337 76.4104 72.3337 69.5779 73.9088 63.9898C77.8744 49.9202 88.8701 38.9245 102.94 34.9589C108.528 33.3838 115.36 33.3838 129.025 33.3838H130.642C144.307 33.3838 151.14 33.3838 156.728 34.9589C170.797 38.9245 181.793 49.9202 185.759 63.9898C187.334 69.5779 187.334 76.4104 187.334 90.0753V90.0753C187.334 103.74 187.334 110.573 185.759 116.161C181.793 130.23 170.797 141.226 156.728 145.192C151.14 146.767 144.307 146.767 130.642 146.767H129.025C115.36 146.767 108.528 146.767 102.94 145.192C88.8701 141.226 77.8744 130.23 73.9088 116.161C72.3337 110.573 72.3337 103.74 72.3337 90.0753V90.0753Z" fill="#1877F2"/>
<rect width="50.3924" height="50.3924" transform="translate(103.829 64.8791)" fill="#1877F2"/>
<path d="M153.172 90.2222C153.172 76.8865 142.361 66.0758 129.025 66.0758C115.689 66.0758 104.879 76.8865 104.879 90.2222C104.879 102.274 113.709 112.264 125.252 114.075V97.202H119.121V90.2222H125.252V84.9025C125.252 78.8508 128.857 75.508 134.373 75.508C137.015 75.508 139.778 75.9796 139.778 75.9796V81.9219H136.733C133.733 81.9219 132.798 83.7832 132.798 85.6927V90.2222H139.495L138.424 97.202H132.798V114.075C144.342 112.264 153.172 102.274 153.172 90.2222Z" fill="white"/>
</g>
<defs>
<filter id="filter0_d_208_112" x="0.858116" y="0.395077" width="257.951" height="256.334" filterUnits="userSpaceOnUse" color-interpolation-filters="sRGB">
<feFlood flood-opacity="0" result="BackgroundImageFix"/>
<feColorMatrix in="SourceAlpha" type="matrix" values="0 0 0 0 0 0 0 0 0 0 0 0 0 0 0 0 0 0 127 0" result="hardAlpha"/>
<feOffset dy="38.4869"/>
<feGaussianBlur stdDeviation="35.7378"/>
<feColorMatrix type="matrix" values="0 0 0 0 0 0 0 0 0 0 0 0 0 0 0 0 0 0 0.07 0"/>
<feBlend mode="normal" in2="BackgroundImageFix" result="effect1_dropShadow_208_112"/>
<feBlend mode="normal" in="SourceGraphic" in2="effect1_dropShadow_208_112" result="shape"/>
</filter>
</defs>
</svg>
